<svg viewBox="0 0 14 14" xmlns="http://www.w3.org/2000/svg"><path d="m11.978933 12.480953c-.63712-.085-1.08422-.2244-1.85872-.578-.1635698-.075-.3233998-.1469-.3551698-.1606l-.0578-.025-.22868.094c-.50431.2074-.95261.3344-1.42307.4033-.19078.028-.59119.054-.73419.048h-.0975l.6408-.6284.6408-.6284.12657.085c.20667.1387.55246.3388.8829.511l.19158.1.052-.02c.0455-.017.4160498-.229.4916098-.2806.027-.018.0237-.021-.1192-.098-.3922098-.2111-1.1878898-.676-1.2169798-.711-.01-.012-.002-.037.0298-.096.20437-.379.31952-.6733003.38763-.9907003.0935-.4358.11527-1.1089.0467-1.4465-.16251-.8-.50815-1.4409-1.02015-1.8918-.32672-.2877-.58658-.4309-1.07264-.5913-.14166-.047-.27549-.094-.2974-.1053-.10708-.054-.20626-.1431-.39698-.355-.4728-.5255-1.07622-1.0382-1.43174-1.2165-.21948-.1101-.51303-.1328-.80419-.062-.18153.044-.51292.2303-.68008.3822-.15813.1437-.21322.2834-.14175.3595.0616.066.14425.084.42236.095.56164.022.68115.077 1.13195.5187.20126.1973.32543.339.36437.4158.0138.027.0541.136.0895.2416.0817.2438.20406.496.33667.6943.0571.085.21023.2944.34026.4646.13004.1703.26277.3481.29496.3951.25032.3663.2641.6517.0468.9701-.0584.086-.23598.2888-.25233.2888-.0192 0-.64031-.5392-1.02634-.8909-.67791-.6176-1.33887-1.2854-1.8472-1.8662-.30706-.3509-.52636-.6243-.83396-1.0399-.10951-.1479-.17619-.2279-.18375-.2203-.0235.024-.15942.3662-.19713.4971l-.0386.1338.1958.2465c1.01102 1.2728 2.00877 2.3088 3.26037 3.3853.0967.083.17885.156.18247.1619.0152.025-1.99911 1.8727003-2.04113 1.8727003-.0414 0-.49838-.4754-.70864-.7373-.22691-.2826003-.3688-.5098003-.56972-.9123003-.40392-.809-.57845-1.5415-.57729-2.4227.0007-.5303.0543-.9497.18232-1.4276l.0443-.1653-.0265-.036c-.0792-.1072-.39418-.5859-.48034-.7301-.33612-.5626-.53131-1.0053-.61263-1.3893-.0359-.1695-.0395-.4371-.008-.5562.0724-.2693.2543-.4366.54786-.5039.1358-.031.49072-.031.67534-.0002.46126.078.96111.2453 1.66208.5581l.0698.031.0932-.071c.25466-.1952.65281-.4315.97673-.5795.5713-.2611 1.11585-.4072 1.77687-.4766.22133-.023.81349-.02 1.03318.01 1.125.1319 2.02624.5135 2.9135098 1.2337.16735.1358.55896.5274.69511.695.66307.8165 1.06498 1.7685 1.19527 2.8315.0274.2237.0375.7495.0187.9801-.0591.7268-.22898 1.3538-.54271 2.0025l-.10608.2194.0994.1524c.25226.3868003.36504.5814003.52296.9021003.34327.6971.43067 1.2017.26726 1.5431-.10256.2143-.29549.3387-.58331.3762-.12061.016-.30831.026-.35843.019zm.20608-.5681c.16751-.035.29088-.1333.34561-.274.0423-.1087.0401-.3119-.005-.4807-.0582-.2169-.15371-.4392-.30405-.7078-.14264-.2548-.37012-.6015003-.3946-.6014003-.005 0-.0256.026-.046.059-.0614.098-.25159.3482003-.36411.4801003-.2336.2738-.59666.6142-.94097.8822-.0944.073-.14816.1232-.14101.1303.0181.018.39372.1827.65293.286.50336.2007.93435.2822 1.1974.2264zm-1.17077-3.5317003c.0351-.011.0964-.041.13631-.068.11832-.079.40732-.3285.58905-.5084.16721-.1655.16997-.1691.19658-.2584.0387-.1299.0311-.3014-.0177-.3998-.0747-.1504-.35966-.4527-.48407-.5136-.13151-.064-.33039-.069-.44448-.01-.0972.05-.49418.3783-.68026.5626-.15172.1502-.19948.2316-.21365.3638-.0173.1612.0424.3117.20011.5044.16338.1996.29196.3047.41547.3395.0774.022.20902.017.30267-.012zm-.85686-1.3597c.0273-.01.0673-.022.0889-.035.11997-.07 1.04022-.8445 1.30877-1.1021.13334-.1278.17346-.1854.19497-.2795.0197-.086.0166-.2627-.006-.3259-.0358-.1014-.1963-.3033-.38707-.4869-.12832-.1234-.17761-.1462-.33871-.1564-.16576-.01-.22904.01-.35673.1051-.14187.1077-.7659398.6272-1.0558998.8789-.23619.2051-.28684.2616-.3444.3845-.0298.064-.0335.086-.0335.2018 0 .1216.003.1357.0396.2107.0461.093.20694.2988.34244.4371.16421.1678.3343.2199.5472698.1676zm-.8951998-1.3332c.0737-.033.14148-.085.50487-.3875.6173698-.514.9567898-.8258 1.0029498-.9211.0591-.1222.0587-.3403-.00083-.4634-.0619-.1278-.39142-.4888-.49527-.5425-.10836-.056-.2753698-.071-.3961798-.035-.0895.026-.15325.073-.56916.4203-.48264.4025-.68925.5828-.84379.7365-.16539.1645-.1895.2157-.18983.4032-.0002.1152.003.1296.0402.2052.0557.1121.18029.2745.31016.4044.1933.1932.24271.2168.44168.2107.10564 0 .14957-.01.19525-.031zm-6.73591-1.2854c.26485-.4886.49965-.8153.90191-1.2551.14627-.1599.18533-.2095.1714-.2176-.0472-.028-.48744-.197-.64165-.247-.25194-.082-.37415-.1004-.66295-.1012-.23971-.0007-.24223-.0004-.31743.034-.0912.042-.1671.1164-.20494.2004-.0346.077-.0462.2885-.023.4211.0348.1987.13911.4665.29373.754.1396.2595.36722.6202.37908.6006.005-.01.0521-.094.1038-.1896z"/></svg>